<?xml version="1.0" encoding="utf-8"?>
<!-- Generator: Adobe Illustrator 25.2.1, SVG Export Plug-In . SVG Version: 6.00 Build 0)  -->
<svg version="1.1" id="Layer_1" xmlns="http://www.w3.org/2000/svg" xmlns:xlink="http://www.w3.org/1999/xlink" x="0px" y="0px"
	 viewBox="0 0 196.6 51.8" style="enable-background:new 0 0 196.6 51.8;" xml:space="preserve">
<style type="text/css">
	.st0{fill:#FFFFFF;}
	.st1{fill:#29255B;}
	.st2{fill:#E18A24;}
	.st3{fill:#5CBDAF;}
	.st4{fill:#E0115E;}
</style>
<g id="Rocket_Saas_Logo_Final" transform="translate(-4.9 -4.4)">
	<g id="Group_5" transform="translate(4.9 4.4)">
		<circle id="Ellipse_1" class="st0" cx="23.7" cy="22.4" r="22.4"/>
		<g id="Group_4" transform="translate(0 9.233)">
			<path id="Path_1" class="st1" d="M33.2,0c-5.6,1-10.6,4.3-13.7,9c-3.6,0.6-6.7,2.6-8.9,5.5c-0.1,0.2-0.1,0.4,0,0.6
				c0.1,0.2,0.2,0.4,0.5,0.4h4.4L14.9,16c-0.1,0.2-0.1,0.6,0.1,0.7l8.1,6c0.1,0.1,0.2,0.1,0.4,0.1c0.1,0,0.2-0.1,0.4-0.2l0.5-0.6
				l1.2,4.1c0.1,0.2,0.2,0.4,0.5,0.4h0.1c0.1,0,0.4-0.1,0.4-0.2c2.1-2.9,3.1-6.5,2.6-10.1c3.6-4.4,5.5-10.7,4.5-15.8
				C33.8,0.2,33.4,0,33.2,0L33.2,0z M29.5,10.3c-0.4,0.6-1.1,1-1.8,1.1c-0.7,0.1-1.5,0-2.1-0.5C24.4,10,24.1,8.3,25,7
				s2.6-1.5,3.9-0.6C30.1,7.3,30.4,9,29.5,10.3C29.6,10.3,29.5,10.3,29.5,10.3L29.5,10.3z"/>
			<g id="Group_1" transform="translate(4.981 21.534)">
				<path id="Path_2" class="st2" d="M12.5,1.8L3.8,13.3c-0.4,0.5-1.1,0.6-1.6,0.2l0,0c-0.5-0.4-0.6-1.1-0.2-1.6l8.7-11.5
					c0.4-0.5,1.1-0.6,1.6-0.2l0,0C12.8,0.6,12.9,1.3,12.5,1.8z"/>
				<circle id="Ellipse_2" class="st2" cx="1.1" cy="14.9" r="1.1"/>
			</g>
			<g id="Group_2" transform="translate(6.56 28.215)">
				<path id="Path_3" class="st3" d="M11.2,1.8L4,11.1c-0.4,0.5-1.1,0.6-1.6,0.2l0,0C1.9,11,1.8,10.3,2.2,9.8l7.2-9.4
					c0.4-0.5,1.1-0.6,1.6-0.2l0,0c0.5,0.3,0.6,1,0.3,1.5C11.2,1.7,11.2,1.8,11.2,1.8z"/>
				<circle id="Ellipse_3" class="st3" cx="1.1" cy="13.2" r="1.1"/>
			</g>
			<g id="Group_3" transform="translate(0 23.113)">
				<path id="Path_4" class="st4" d="M11.1,1.8l-7.2,9.4c-0.4,0.5-1.1,0.6-1.6,0.2l0,0C1.8,11,1.7,10.3,2.1,9.8l7.2-9.4
					c0.4-0.5,1.1-0.6,1.6-0.2l0,0C11.3,0.6,11.4,1.3,11.1,1.8z"/>
				<circle id="Ellipse_4" class="st4" cx="1.1" cy="13.3" r="1.1"/>
			</g>
		</g>
	</g>
	<g id="Group_6" transform="translate(60.296 12.296)">
		<path id="Path_5" class="st0" d="M13.6,10.1l-1.2,5c-0.8-0.5-1.7-0.7-2.7-0.7c-2.7,0-4.5,2.4-4.5,7.8v6.4H0V10h5.2v4
			c1.1-3.2,3.2-4.4,5.5-4.4C11.7,9.4,12.7,9.6,13.6,10.1z"/>
		<path id="Path_6" class="st0" d="M13.2,19.2C13.1,13.7,17.5,9.1,23,9c5.5-0.1,10.1,4.2,10.2,9.7S29,28.8,23.4,28.9
			c-0.1,0-0.2,0-0.2,0c-5.3,0.2-9.8-4-10-9.3C13.2,19.5,13.2,19.3,13.2,19.2z M27.9,19.2c0.1-2.6-2-4.8-4.6-4.8s-4.8,2-4.8,4.6
			c0,0.1,0,0.1,0,0.2c-0.1,2.6,2,4.8,4.6,4.8c2.6,0.1,4.8-2,4.8-4.6C27.9,19.3,27.9,19.3,27.9,19.2z"/>
		<path id="Path_7" class="st0" d="M34.6,19.2c0-6,4.7-9.7,10.2-9.7c3.1,0,6.1,1.5,7.9,4l-3.9,2.8c-1.8-2.1-4.9-2.4-7-0.7
			c-1.1,0.9-1.8,2.3-1.8,3.7c-0.1,2.6,1.9,4.8,4.5,4.9c0.2,0,0.3,0,0.5,0c1.5,0,2.9-0.7,3.9-1.8l3.9,2.8c-1.8,2.6-4.8,4.1-7.9,4
			C39.4,28.9,34.6,25.1,34.6,19.2z"/>
		<path id="Path_8" class="st0" d="M66.7,28.5l-6.6-8v8h-5.2V0h5.2v15.6l4.7-5.7h6.7L64.3,18l8.9,10.4h-6.4L66.7,28.5z"/>
		<path id="Path_9" class="st0" d="M91.1,20.9H77c0.6,2.2,2.3,3.4,4.9,3.4c1.8,0,3.6-0.7,4.9-2.1l3,3c-1.7,2.3-5,3.6-8.3,3.6
			c-5.7,0-9.8-3.9-9.8-9.6c0-6.1,4.5-9.7,9.8-9.7c5.1-0.2,9.4,3.7,9.6,8.8c0,0.2,0,0.4,0,0.6L91.1,20.9z M85.9,17.5
			c-0.1-2.2-1.9-3.5-4.4-3.5c-2.2-0.2-4.1,1.4-4.5,3.5H85.9z"/>
		<path id="Path_10" class="st0" d="M104.4,14h-4v14.6h-5.2V14h-3.4v-4h3.4V3.2h5.2V10h4L104.4,14L104.4,14z"/>
		<path id="Path_11" class="st0" d="M108.5,27.2c1.1,0.1,2.1-0.6,2.3-1.7c0.1-1.2-1-1.8-1.9-2.1l-1.5-0.4c-2.4-0.6-2.8-2.1-2.8-3
			c0.1-1.9,1.8-3.4,3.8-3.3c1.9-0.2,3.6,1.3,3.8,3.2c0,0.1,0,0.1,0,0.2h-1.6c0-1.1-0.9-2-2-2c-0.1,0-0.1,0-0.2,0
			c-1.1,0-2.2,0.7-2.2,1.7c0,0.5,0.2,1.2,1.6,1.6l1.5,0.4c2.2,0.6,3.3,1.8,3,3.6c-0.3,1.9-2,3.2-3.9,3c-2.1,0.1-3.9-1.5-4-3.5h1.6
			C106,26.3,107.1,27.3,108.5,27.2C108.5,27.2,108.5,27.2,108.5,27.2z"/>
		<path id="Path_12" class="st0" d="M120.3,27.3c-0.7,0.9-1.7,1.4-2.8,1.3c-2.2,0-4-1.7-4-3.8c0-0.1,0-0.2,0-0.3
			c-0.1-2.1,1.5-3.9,3.6-4c0.1,0,0.3,0,0.4,0c1.1,0,2.1,0.5,2.8,1.3v-1.2h1.5v7.8h-1.5V27.3z M117.6,22.1c-1.4,0-2.6,1.1-2.6,2.5
			c0,1.4,1.1,2.6,2.5,2.6c0,0,0.1,0,0.1,0c1.4,0,2.5-1.1,2.6-2.4c0,0,0-0.1,0-0.1c0.1-1.3-0.9-2.4-2.2-2.5
			C117.9,22.1,117.7,22.1,117.6,22.1L117.6,22.1z"/>
		<path id="Path_13" class="st0" d="M130.1,27.3c-0.7,0.9-1.7,1.4-2.8,1.3c-2.2,0-4-1.7-4-3.8c0-0.1,0-0.2,0-0.3
			c-0.1-2.1,1.5-3.9,3.6-4c0.1,0,0.3,0,0.4,0c1.1,0,2.1,0.5,2.8,1.3v-1.2h1.5v7.8h-1.5V27.3z M127.6,22.1c-1.4,0-2.5,1.2-2.5,2.6
			c0,1.4,1.1,2.4,2.5,2.5c1.4,0,2.6-1.1,2.6-2.5c0-1.4-1.1-2.6-2.5-2.6C127.7,22.1,127.6,22.1,127.6,22.1z"/>
		<path id="Path_14" class="st0" d="M137.4,27.2c1.1,0.1,2.1-0.6,2.3-1.7c0.1-1.2-1-1.8-1.9-2.1l-1.5-0.4c-2.4-0.6-2.8-2.1-2.8-3
			c0.1-1.9,1.8-3.4,3.8-3.3c1.9-0.2,3.6,1.3,3.8,3.2c0,0.1,0,0.1,0,0.2h-1.6c0-1.1-0.9-2-2-2c-0.1,0-0.1,0-0.2,0
			c-1.1,0-2.2,0.7-2.2,1.7c0,0.5,0.2,1.2,1.6,1.6l1.5,0.4c2.2,0.6,3.3,1.8,3,3.6c-0.3,1.9-2,3.2-3.9,3c-2.1,0.1-3.9-1.5-4-3.5h1.6
			C135,26.3,136.1,27.3,137.4,27.2z"/>
	</g>
</g>
</svg>
