<svg xmlns="http://www.w3.org/2000/svg" width="8.85" height="17.742" viewBox="0 0 8.85 17.742">
  <g id="Сгруппировать_831" data-name="Сгруппировать 831" transform="translate(-165.25 76.992) rotate(-90)">
    <path id="Tracciato_12" data-name="Tracciato 12" d="M8.621,8.6a.63.63,0,0,1-.428-.167L-.046.847A.632.632,0,0,1,.81-.083L9.049,7.5a.632.632,0,0,1-.428,1.1Z" transform="translate(59.5 165.5)"/>
    <path id="Tracciato_13" data-name="Tracciato 13" d="M.382,8.6A.632.632,0,0,1-.046,7.5L8.193-.083a.632.632,0,1,1,.856.93L.81,8.433A.63.63,0,0,1,.382,8.6Z" transform="translate(67.739 165.5)"/>
  </g>
</svg>
