<svg xmlns="http://www.w3.org/2000/svg" width="6" height="10.466" viewBox="0 0 6 10.466">
  <path id="Icon_feather-facebook" data-name="Icon feather-facebook" d="M14.241,2.5h1.489A.271.271,0,0,1,16,2.771V4.756a.271.271,0,0,1-.271.271H14.241a.226.226,0,0,0-.225.225V6.47h1.714a.271.271,0,0,1,.263.336l-.5,1.985A.271.271,0,0,1,15.233,9H14.015v3.7a.271.271,0,0,1-.271.271H11.759a.271.271,0,0,1-.271-.271V9H10.271A.271.271,0,0,1,10,8.725V6.741a.271.271,0,0,1,.271-.271h1.218V5.252A2.755,2.755,0,0,1,14.241,2.5Zm1.218.541H14.241a2.213,2.213,0,0,0-2.21,2.21V6.741a.271.271,0,0,1-.271.271H10.541V8.455h1.218a.271.271,0,0,1,.271.271v3.7h1.443v-3.7a.271.271,0,0,1,.271-.271h1.277l.361-1.443H13.744a.271.271,0,0,1-.271-.271V5.252a.768.768,0,0,1,.767-.767h1.218Z" transform="translate(-10 -2.5)"/>
</svg>
