<svg xmlns="http://www.w3.org/2000/svg" width="7.042" height="14.117" viewBox="0 0 7.042 14.117">
  <g id="Сгруппировать_823" data-name="Сгруппировать 823" transform="translate(-165.25 73.367) rotate(-90)">
    <path id="Tracciato_12" data-name="Tracciato 12" d="M6.808,6.792a.5.5,0,0,1-.341-.133L-.088.623a.5.5,0,0,1,.681-.74L7.149,5.919a.5.5,0,0,1-.341.873Z" transform="translate(59.5 165.5)"/>
    <path id="Tracciato_13" data-name="Tracciato 13" d="M.253,6.792a.5.5,0,0,1-.341-.873L6.468-.117a.5.5,0,1,1,.681.74L.594,6.659A.5.5,0,0,1,.253,6.792Z" transform="translate(66.056 165.5)"/>
  </g>
</svg>
