<svg xmlns="http://www.w3.org/2000/svg" width="12.835" height="11.848" viewBox="0 0 12.835 11.848">
  <path id="Icon_ionic-md-heart-empty" data-name="Icon ionic-md-heart-empty" d="M12.68,4.5A3.8,3.8,0,0,0,9.792,5.854,3.8,3.8,0,0,0,6.9,4.5a3.489,3.489,0,0,0-3.53,3.551c0,2.453,2.181,4.421,5.486,7.457l.932.839.932-.839c3.3-3.036,5.486-5,5.486-7.457A3.489,3.489,0,0,0,12.68,4.5ZM10.187,14.66l-.13.12-.265.241-.265-.241-.13-.12A39.217,39.217,0,0,1,5.612,10.9,4.527,4.527,0,0,1,4.365,8.051,2.566,2.566,0,0,1,5.1,6.222,2.511,2.511,0,0,1,6.9,5.487a2.83,2.83,0,0,1,2.132,1l.756.9.756-.9a2.819,2.819,0,0,1,2.132-1,2.523,2.523,0,0,1,1.811.734,2.572,2.572,0,0,1,.731,1.83A4.551,4.551,0,0,1,13.976,10.9,39.3,39.3,0,0,1,10.187,14.66Z" transform="translate(-3.375 -4.5)"/>
</svg>
