<svg xmlns="http://www.w3.org/2000/svg" width="6.316" height="12.663" viewBox="0 0 6.316 12.663">
  <g id="Сгруппировать_857" data-name="Сгруппировать 857" transform="translate(-165.25 71.913) rotate(-90)">
    <path id="Tracciato_12" data-name="Tracciato 12" d="M6.081,6.066a.45.45,0,0,1-.305-.119L-.1.533A.451.451,0,1,1,.507-.131l5.88,5.414a.451.451,0,0,1-.306.783Z" transform="translate(59.5 165.5)"/>
    <path id="Tracciato_13" data-name="Tracciato 13" d="M.2,6.066A.451.451,0,0,1-.1,5.283L5.776-.131a.451.451,0,0,1,.611.664L.507,5.947A.45.45,0,0,1,.2,6.066Z" transform="translate(65.38 165.5)"/>
  </g>
</svg>
