<svg xmlns="http://www.w3.org/2000/svg" width="9.554" height="9.552" viewBox="0 0 9.554 9.552">
  <path id="Icon_awesome-instagram" data-name="Icon awesome-instagram" d="M4.773,4.565A2.449,2.449,0,1,0,7.222,7.014,2.445,2.445,0,0,0,4.773,4.565Zm0,4.041A1.592,1.592,0,1,1,6.365,7.014,1.6,1.6,0,0,1,4.773,8.606Zm3.12-4.141a.571.571,0,1,1-.571-.571A.57.57,0,0,1,7.893,4.464Zm1.622.58a2.827,2.827,0,0,0-.772-2,2.845,2.845,0,0,0-2-.772c-.789-.045-3.152-.045-3.941,0a2.841,2.841,0,0,0-2,.769,2.836,2.836,0,0,0-.772,2c-.045.789-.045,3.152,0,3.941a2.827,2.827,0,0,0,.772,2,2.849,2.849,0,0,0,2,.772c.789.045,3.152.045,3.941,0a2.827,2.827,0,0,0,2-.772,2.845,2.845,0,0,0,.772-2c.045-.789.045-3.15,0-3.939ZM8.5,9.829a1.612,1.612,0,0,1-.908.908,10.527,10.527,0,0,1-2.816.192,10.609,10.609,0,0,1-2.816-.192,1.612,1.612,0,0,1-.908-.908A10.527,10.527,0,0,1,.857,7.014,10.609,10.609,0,0,1,1.049,4.2a1.612,1.612,0,0,1,.908-.908A10.527,10.527,0,0,1,4.773,3.1a10.609,10.609,0,0,1,2.816.192A1.612,1.612,0,0,1,8.5,4.2a10.527,10.527,0,0,1,.192,2.816A10.521,10.521,0,0,1,8.5,9.829Z" transform="translate(0.005 -2.238)"/>
</svg>
