<svg id="Group_908" data-name="Group 908" xmlns="http://www.w3.org/2000/svg" xmlns:xlink="http://www.w3.org/1999/xlink" width="128.649" height="29.723" viewBox="0 0 128.649 29.723">
  <defs>
    <clipPath id="clip-path">
      <rect id="Rectangle_286" data-name="Rectangle 286" width="128.649" height="29.723"/>
    </clipPath>
  </defs>
  <g id="Group_907" data-name="Group 907" clip-path="url(#clip-path)">
    <path id="Path_79" data-name="Path 79" d="M51.479,15.075q0-6.651,0-13.3A1.423,1.423,0,0,1,51.9.577a.935.935,0,0,1,.7-.3c.242.01.485,0,.728,0,3.11,0,6.221-.006,9.331.005a8.881,8.881,0,0,1,1.909.12c2,.452,3.993.947,5.527,2.442a7.143,7.143,0,0,1,2.285,4.843,9.341,9.341,0,0,1-.149,2.632,7.387,7.387,0,0,1-2.3,3.849c-.5.456-.528.6,0,1.014a7,7,0,0,1,1.917,2.162,8.545,8.545,0,0,1,.823,2.075,9.409,9.409,0,0,1-.072,4.391A6.721,6.721,0,0,1,70.846,27.1a8.643,8.643,0,0,1-4.222,2.312,17.554,17.554,0,0,1-4.065.408c-1.257.011-2.522.1-3.769-.009-.993-.086-1.967.064-2.951.02s-1.985-.009-2.978-.011a3.573,3.573,0,0,1-.462-.021.957.957,0,0,1-.915-.955c-.024-.307,0-.617,0-.926q0-6.42,0-12.839m8.738,1.651v-.009c-1.3,0-2.6,0-3.9,0-.644,0-.794.144-.795.767q0,3.835,0,7.67c0,.739.159.89.893.89,2.05,0,4.1-.019,6.149,0A11.839,11.839,0,0,0,65.19,25.8a4.851,4.851,0,0,0,2.357-1.256,4.223,4.223,0,0,0,1.239-3.175,4.169,4.169,0,0,0-1.614-3.529,5.485,5.485,0,0,0-3.451-1.117h-3.5M60,12.874c1.036,0,2.073.008,3.11,0a11.55,11.55,0,0,0,1.384-.086A4.184,4.184,0,0,0,68.29,9.3a4.061,4.061,0,0,0-1.5-4.058A5.174,5.174,0,0,0,63.57,4.22c-2.4-.018-4.808-.008-7.212,0-.717,0-.834.132-.835.859q0,3.474,0,6.947c0,.724.115.846.844.849,1.213.006,2.426,0,3.639,0" transform="translate(-40.672 -0.221)"/>
    <path id="Path_80" data-name="Path 80" d="M186.765,15.015q0-6.552,0-13.1a2.089,2.089,0,0,1,.074-.783,1.278,1.278,0,0,1,1.29-.908c3.618.034,7.236.01,10.853.021a6.261,6.261,0,0,1,2.077.321c.7.246,1.45.372,2.146.635a7.339,7.339,0,0,1,3.85,3.254,8.673,8.673,0,0,1,.94,5.763,7.22,7.22,0,0,1-3.914,5.636c-.484.257-1,.45-1.5.68-.546.252-.582.459-.286.97.617,1.067,1.2,2.151,1.8,3.227q.82,1.472,1.64,2.943c.855,1.539,1.715,3.075,2.562,4.618a.971.971,0,0,1-.732,1.442,25.9,25.9,0,0,1-2.644.006,1.037,1.037,0,0,1-.844-.573c-.351-.584-.7-1.173-1.027-1.769q-1.429-2.568-2.844-5.144c-.571-1.042-1.127-2.092-1.694-3.136-.283-.522-.582-1.035-.865-1.557a.963.963,0,0,0-.918-.534c-1.7,0-3.4-.011-5.1,0-.467,0-.63.171-.679.633a5.562,5.562,0,0,0-.009.6q0,5,0,9.993a1.552,1.552,0,0,1-.24,1.007,1.119,1.119,0,0,1-.943.517c-.618-.005-1.236.012-1.853,0a.968.968,0,0,1-1.079-.86,4.036,4.036,0,0,1-.073-.919q-.006-6.486,0-12.972M195.63,4.17v0c-1.279,0-2.557,0-3.836,0-.725,0-.845.126-.846.85,0,1.631,0,3.263,0,4.894q0,1.256,0,2.513c0,.8.1.9.924.9h.265c2.182,0,4.365,0,6.547,0a6.8,6.8,0,0,0,3.016-.622,3.953,3.953,0,0,0,1.8-1.7,4.807,4.807,0,0,0,.461-3.213,3.946,3.946,0,0,0-1.274-2.407A5.316,5.316,0,0,0,199.2,4.169c-1.19,0-2.381,0-3.571,0" transform="translate(-147.58 -0.174)"/>
    <path id="Path_81" data-name="Path 81" d="M390.352,13.653q2.35,0,4.7,0c.85,0,1.225.356,1.225,1.185,0,1.787.07,3.578-.024,5.36a9.059,9.059,0,0,1-3.544,7.02,11.39,11.39,0,0,1-2.945,1.735,8.587,8.587,0,0,1-3.007.724c-1.234,0-2.474.016-3.7-.106a9.048,9.048,0,0,1-2.693-.854,10.494,10.494,0,0,1-3.642-2.681,8.368,8.368,0,0,1-1.99-4.246,26.876,26.876,0,0,1-.327-4.94c.017-1.765.033-3.531-.005-5.295a20.847,20.847,0,0,1,.5-4.459,7,7,0,0,1,1.714-3.238A10.879,10.879,0,0,1,381.12.718a8.008,8.008,0,0,1,3.523-.7c.919.087,1.853,0,2.778.045a3.7,3.7,0,0,1,1,.27c.56.193,1.115.4,1.668.617a9.026,9.026,0,0,1,3.406,2.335,8.768,8.768,0,0,1,1.928,2.978c.25.7.5,1.407.721,2.121a1.03,1.03,0,0,1-1.072,1.458c-.6.013-1.191,0-1.787,0a1.113,1.113,0,0,1-1.158-.8,14.781,14.781,0,0,0-.722-1.766A6.209,6.209,0,0,0,387.306,4a6.453,6.453,0,0,0-2.082-.316,6.973,6.973,0,0,0-5.639,2.949,4.607,4.607,0,0,0-.67,1.567c-.172.769-.2,1.569-.3,2.354a50.567,50.567,0,0,0-.132,7.07,22.562,22.562,0,0,0,.452,3.994,4.644,4.644,0,0,0,.853,1.765,6.349,6.349,0,0,0,3.159,2.279,6.891,6.891,0,0,0,5.227-.174,6.209,6.209,0,0,0,3.822-4.506,11.215,11.215,0,0,0,.252-2.755c-.024-.695-.17-.866-.865-.87-1.809-.009-3.619,0-5.428,0a4.067,4.067,0,0,1-.66-.026,1.053,1.053,0,0,1-.961-1.081c-.021-.462-.018-.927,0-1.39a1.129,1.129,0,0,1,1.256-1.208q2.383,0,4.766,0Z" transform="translate(-295.845 -0.001)"/>
    <path id="Path_82" data-name="Path 82" d="M526.487,10.965c0-3.067.006-6.134-.006-9.2A1.374,1.374,0,0,1,527,.551a1.087,1.087,0,0,1,.718-.258c.552,0,1.1-.007,1.655,0a1.162,1.162,0,0,1,1.2,1,3.367,3.367,0,0,1,.049.658q.008,8.87.006,17.739a10.968,10.968,0,0,1-.721,4.075,7.932,7.932,0,0,1-.909,1.681,10.708,10.708,0,0,1-3.031,2.907A12.985,12.985,0,0,1,522.8,29.67a6.171,6.171,0,0,1-1.631.241,18.846,18.846,0,0,1-4.223-.155,18.1,18.1,0,0,1-2.31-.765,8.54,8.54,0,0,1-2.612-1.648,9.135,9.135,0,0,1-2.126-2.67,10.863,10.863,0,0,1-1.184-5.353q-.01-8.671-.01-17.342a1.73,1.73,0,0,1,.477-1.386.927.927,0,0,1,.694-.3c.574.006,1.147,0,1.721,0a1.349,1.349,0,0,1,1.3,1.156,4.182,4.182,0,0,1,.022.594c0,6,.007,12-.009,18a6,6,0,0,0,2.668,5.115,6.2,6.2,0,0,0,2.956,1.074,8.161,8.161,0,0,0,3.527-.285,6.451,6.451,0,0,0,2.64-1.561,6,6,0,0,0,1.776-4.291c.043-3.044.012-6.09.012-9.134Z" transform="translate(-401.976 -0.23)"/>
    <path id="Path_83" data-name="Path 83" d="M0,14.977Q0,8.4,0,1.817A1.46,1.46,0,0,1,.269.761,1.305,1.305,0,0,1,1.462.221a6.861,6.861,0,0,0,1.321,0A1.044,1.044,0,0,1,3.9.853a2.531,2.531,0,0,1,.289,1.062Q4.209,14.91,4.182,27.9a4.473,4.473,0,0,1-.192,1.224.84.84,0,0,1-.851.616c-.705.01-1.411.032-2.115,0A1.034,1.034,0,0,1,.07,28.664C.021,28.072.005,27.475,0,26.881Q0,20.929,0,14.977Z" transform="translate(0 -0.167)"/>
    <path id="Path_84" data-name="Path 84" d="M326.288,15.078q0-6.648-.005-13.3a1.346,1.346,0,0,1,.5-1.219A1.109,1.109,0,0,1,327.5.293c.573,0,1.147-.008,1.72,0a1.148,1.148,0,0,1,1.172,1.028,4.75,4.75,0,0,1,.035.726q0,13,0,26a5.324,5.324,0,0,1-.04.857.993.993,0,0,1-.983.9c-.682.033-1.368.033-2.05,0a.916.916,0,0,1-.949-.979c-.051-.968-.1-1.938-.1-2.908-.012-3.616,0-7.233-.005-10.849" transform="translate(-257.826 -0.231)"/>
  </g>
</svg>
