<svg xmlns="http://www.w3.org/2000/svg" width="18.942" height="17.485" viewBox="0 0 18.942 17.485">
  <path id="Icon_ionic-md-heart-empty" data-name="Icon ionic-md-heart-empty" d="M17.108,4.5a5.6,5.6,0,0,0-4.262,2,5.6,5.6,0,0,0-4.262-2A5.15,5.15,0,0,0,3.375,9.741c0,3.62,3.219,6.525,8.1,11.005l1.375,1.239,1.375-1.239c4.877-4.48,8.1-7.386,8.1-11.005A5.15,5.15,0,0,0,17.108,4.5ZM13.429,19.494l-.191.178-.392.355-.392-.355-.191-.178a57.877,57.877,0,0,1-5.587-5.555,6.681,6.681,0,0,1-1.84-4.2,3.787,3.787,0,0,1,1.079-2.7A3.706,3.706,0,0,1,8.584,5.957a4.176,4.176,0,0,1,3.146,1.48l1.116,1.325,1.116-1.325a4.161,4.161,0,0,1,3.146-1.48,3.724,3.724,0,0,1,2.673,1.084,3.8,3.8,0,0,1,1.079,2.7,6.716,6.716,0,0,1-1.84,4.2A57.993,57.993,0,0,1,13.429,19.494Z" transform="translate(-3.375 -4.5)"/>
</svg>
